<?xml version="1.0" encoding="UTF-8" standalone="no"?>
<svg
   xmlns:dc="http://purl.org/dc/elements/1.1/"
   xmlns:cc="http://creativecommons.org/ns#"
   xmlns:rdf="http://www.w3.org/1999/02/22-rdf-syntax-ns#"
   xmlns:svg="http://www.w3.org/2000/svg"
   xmlns="http://www.w3.org/2000/svg"
   xmlns:sodipodi="http://sodipodi.sourceforge.net/DTD/sodipodi-0.dtd"
   xmlns:inkscape="http://www.inkscape.org/namespaces/inkscape"
   width="1014.3"
   height="218.21"
   version="1.1"
   viewBox="0 0 1014.3 218.21"
   id="svg929"
   sodipodi:docname="logo.svg"
   inkscape:version="0.92.2 (5c3e80d, 2017-08-06)">
  <metadata
     id="metadata933">
    <rdf:RDF>
      <cc:Work
         rdf:about="">
        <dc:format>image/svg+xml</dc:format>
        <dc:type
           rdf:resource="http://purl.org/dc/dcmitype/StillImage" />
        <dc:title></dc:title>
      </cc:Work>
    </rdf:RDF>
  </metadata>
  <sodipodi:namedview
     pagecolor="#ffffff"
     bordercolor="#666666"
     borderopacity="1"
     objecttolerance="10"
     gridtolerance="10"
     guidetolerance="10"
     inkscape:pageopacity="0"
     inkscape:pageshadow="2"
     inkscape:window-width="1920"
     inkscape:window-height="1017"
     id="namedview931"
     showgrid="false"
     inkscape:pagecheckerboard="true"
     inkscape:zoom="1.4196983"
     inkscape:cx="507.14999"
     inkscape:cy="109.105"
     inkscape:window-x="272"
     inkscape:window-y="1432"
     inkscape:window-maximized="1"
     inkscape:current-layer="g927" />
  <defs
     id="defs881">
    <clipPath
       id="c">
      <path
         d="m0 190.67h787v-190.67h-787z"
         id="path875" />
    </clipPath>
    <clipPath
       id="d">
      <path
         d="m0 190.67h787v-190.67h-787z"
         id="path878" />
    </clipPath>
  </defs>
  <g
     transform="matrix(1.3333 0 0 -1.3333 -17.599 236.44)"
     id="g927">
    <g
       aria-label="Example Event"
       transform="scale(0.91455052,-1.0934333)"
       style="font-style:normal;font-weight:normal;font-size:112.88645935px;line-height:1.25;font-family:sans-serif;letter-spacing:0px;word-spacing:0px;fill:#000000;fill-opacity:1;stroke:none;stroke-width:1.05831063"
       id="text937">
      <path
         d="M 68.961407,-42.237 H 14.888352 v -82.07419 h 54.073055 v 9.70118 H 25.802179 v 22.489101 h 43.159228 v 9.701181 H 25.802179 v 30.481548 h 43.159228 z"
         style="font-size:112.88645935px;stroke-width:1.05831063"
         id="path947" />
      <path
         d="M 138.79888,-42.237 H 125.73535 L 108.26221,-65.883626 90.678818,-42.237 H 78.607463 l 24.032467,-30.70203 -23.811986,-30.86739 h 13.063521 l 17.362905,23.260783 17.41803,-23.260783 h 12.12648 l -24.19783,30.316187 z"
         style="font-size:112.88645935px;stroke-width:1.05831063"
         id="path949" />
      <path
         d="m 200.14782,-42.237 h -10.3075 v -6.55932 q -1.37801,0.937046 -3.74818,2.645776 -2.31506,1.65361 -4.51987,2.645777 -2.59066,1.267767 -5.953,2.094573 -3.36234,0.881925 -7.88221,0.881925 -8.32317,0 -14.1108,-5.512034 -5.78764,-5.512034 -5.78764,-14.055687 0,-7.000284 2.9765,-11.29967 3.03162,-4.354507 8.59877,-6.834922 5.62228,-2.480416 13.50449,-3.362341 7.8822,-0.881926 16.92194,-1.322889 v -1.598489 q 0,-3.527702 -1.26777,-5.842757 -1.21264,-2.315054 -3.5277,-3.637942 -2.20481,-1.267768 -5.29155,-1.708731 -3.08674,-0.440962 -6.44908,-0.440962 -4.07891,0 -9.09486,1.102406 -5.01595,1.047287 -10.36262,3.086739 h -0.55121 v -10.527982 q 3.03162,-0.82681 8.76414,-1.81897 5.73251,-0.99217 11.29967,-0.99217 6.5042,0 11.29967,1.10241 4.85059,1.04728 8.37829,3.63794 3.47258,2.535535 5.29155,6.55932 1.81897,4.023785 1.81897,9.976782 z m -10.3075,-15.158093 V -74.53752 q -4.74035,0.275602 -11.18943,0.826806 -6.39396,0.551203 -10.14214,1.598489 -4.46475,1.267768 -7.22077,3.968665 -2.75601,2.645776 -2.75601,7.331005 0,5.291553 3.19698,7.99245 3.19698,2.645776 9.7563,2.645776 5.45691,0 9.97678,-2.094573 4.51987,-2.149693 8.37829,-5.126191 z"
         style="font-size:112.88645935px;stroke-width:1.05831063"
         id="path951" />
      <path
         d="m 310.05779,-42.237 h -10.36263 v -35.056537 q 0,-3.968664 -0.38584,-7.661727 -0.33072,-3.693063 -1.48825,-5.897877 -1.26776,-2.370174 -3.63794,-3.582822 -2.37017,-1.212647 -6.83492,-1.212647 -4.35451,0 -8.70902,2.204813 -4.3545,2.149694 -8.70901,5.512034 0.16536,1.267768 0.2756,2.976499 0.11024,1.65361 0.11024,3.30722 V -42.237 H 259.9534 v -35.056537 q 0,-4.078905 -0.38584,-7.716848 -0.33073,-3.693062 -1.48825,-5.897876 -1.26777,-2.370175 -3.63795,-3.527702 -2.37017,-1.212647 -6.83492,-1.212647 -4.24426,0 -8.54365,2.094573 -4.24427,2.094573 -8.48853,5.346673 V -42.237 h -10.36263 v -61.56942 h 10.36263 v 6.834921 q 4.85059,-4.023781 9.64606,-6.283721 4.85059,-2.25993 10.3075,-2.25993 6.28372,0 10.63823,2.64577 4.40962,2.64578 6.55932,7.33101 6.28372,-5.29155 11.46503,-7.60661 5.18131,-2.37017 11.07919,-2.37017 10.14214,0 14.93761,6.173477 4.85059,6.118358 4.85059,17.142426 z"
         style="font-size:112.88645935px;stroke-width:1.05831063"
         id="path953" />
      <path
         d="m 384.19464,-73.765835 q 0,7.496367 -2.14969,13.724965 -2.1497,6.173478 -6.06324,10.472865 -3.63794,4.078905 -8.59877,6.338839 -4.90571,2.204814 -10.41775,2.204814 -4.79547,0 -8.70901,-1.047286 -3.85843,-1.047287 -7.88221,-3.252101 v 25.79632 h -10.36262 v -84.279001 h 10.36262 v 6.449079 q 4.13403,-3.472579 9.26022,-5.787639 5.18131,-2.37017 11.02407,-2.37017 11.1343,0 17.30778,8.433411 6.2286,8.378292 6.2286,23.315904 z m -10.69335,0.275602 q 0,-11.134309 -3.8033,-16.646343 -3.8033,-5.512034 -11.68551,-5.512034 -4.46475,0 -8.98462,1.929212 -4.51986,1.929211 -8.65389,5.071071 v 34.891176 q 4.40963,1.984332 7.55149,2.700897 3.19698,0.716564 7.22076,0.716564 8.65389,0 13.50448,-5.842756 4.85059,-5.842756 4.85059,-17.307787 z"
         style="font-size:112.88645935px;stroke-width:1.05831063"
         id="path955" />
      <path
         d="m 410.81777,-42.237 h -10.36263 v -85.76725 h 10.36263 z"
         style="font-size:112.88645935px;stroke-width:1.05831063"
         id="path957" />
      <path
         d="m 482.97028,-71.946864 h -45.36404 q 0,5.677396 1.70873,9.921662 1.70873,4.189146 4.68523,6.890043 2.86626,2.645776 6.7798,3.968664 3.96867,1.322888 8.70902,1.322888 6.28372,0 12.62255,-2.480415 6.39396,-2.535536 9.09486,-4.960831 h 0.5512 v 11.29967 q -5.23643,2.204814 -10.69334,3.693063 -5.45692,1.488249 -11.46503,1.488249 -15.32346,0 -23.92223,-8.268051 -8.59877,-8.323171 -8.59877,-23.591506 0,-15.102974 8.21293,-23.977349 8.26805,-8.874373 21.71741,-8.874373 12.4572,0 19.18188,7.275884 6.7798,7.275885 6.7798,20.670128 z m -10.08702,-7.937329 q -0.0551,-8.15781 -4.13403,-12.622558 -4.02378,-4.464748 -12.29183,-4.464748 -8.32317,0 -13.284,4.905711 -4.90572,4.90571 -5.56716,12.181595 z"
         style="font-size:112.88645935px;stroke-width:1.05831063"
         id="path959" />
      <path
         d="m 593.26609,-42.237 h -54.07305 v -82.07419 h 54.07305 v 9.70118 h -43.15922 v 22.489101 h 43.15922 v 9.701181 h -43.15922 v 30.481548 h 43.15922 z"
         style="font-size:112.88645935px;stroke-width:1.05831063"
         id="path961" />
      <path
         d="m 663.04846,-103.80642 -24.9144,61.56942 h -10.41774 l -24.74903,-61.56942 h 11.24455 l 19.07163,49.001983 18.90628,-49.001983 z"
         style="font-size:112.88645935px;stroke-width:1.05831063"
         id="path963" />
      <path
         d="m 727.26362,-71.946864 h -45.36404 q 0,5.677396 1.70873,9.921662 1.70873,4.189146 4.68523,6.890043 2.86625,2.645776 6.7798,3.968664 3.96866,1.322888 8.70901,1.322888 6.28372,0 12.62256,-2.480415 6.39396,-2.535536 9.09486,-4.960831 h 0.5512 v 11.29967 q -5.23643,2.204814 -10.69335,3.693063 -5.45691,1.488249 -11.46503,1.488249 -15.32345,0 -23.92223,-8.268051 -8.59877,-8.323171 -8.59877,-23.591506 0,-15.102974 8.21293,-23.977349 8.26805,-8.874373 21.71742,-8.874373 12.45719,0 19.18187,7.275884 6.77981,7.275885 6.77981,20.670128 z m -10.08703,-7.937329 q -0.0551,-8.15781 -4.13402,-12.622558 -4.02379,-4.464748 -12.29184,-4.464748 -8.32317,0 -13.284,4.905711 -4.90571,4.90571 -5.56715,12.181595 z"
         style="font-size:112.88645935px;stroke-width:1.05831063"
         id="path965" />
      <path
         d="M 794.45532,-42.237 H 784.0927 v -35.056537 q 0,-4.244266 -0.49608,-7.937329 -0.49609,-3.748183 -1.81898,-5.842756 -1.378,-2.315054 -3.96866,-3.417461 -2.59066,-1.157527 -6.72468,-1.157527 -4.24427,0 -8.87438,2.094573 -4.63011,2.094573 -8.87437,5.346673 V -42.237 h -10.36263 v -61.56942 h 10.36263 v 6.834921 q 4.85059,-4.023781 10.0319,-6.283721 5.18131,-2.25993 10.63823,-2.25993 9.97678,0 15.21321,6.008116 5.23643,6.008117 5.23643,17.307787 z"
         style="font-size:112.88645935px;stroke-width:1.05831063"
         id="path967" />
      <path
         d="m 846.3787,-42.788203 q -2.92138,0.771685 -6.39396,1.267768 -3.41746,0.496083 -6.11836,0.496083 -9.42558,0 -14.33129,-5.071071 -4.90571,-5.071072 -4.90571,-16.260501 v -32.741483 h -7.00028 v -8.709013 h 7.00028 v -17.69363 H 824.992 v 17.69363 h 21.3867 v 8.709013 H 824.992 v 28.056254 q 0,4.85059 0.22048,7.606607 0.22049,2.700897 1.54337,5.071071 1.21265,2.204814 3.30722,3.252101 2.1497,0.992166 6.50421,0.992166 2.53553,0 5.29155,-0.716565 2.75601,-0.771685 3.96866,-1.267768 h 0.55121 z"
         style="font-size:112.88645935px;stroke-width:1.05831063"
         id="path969" />
    </g>
  </g>
</svg>
